<svg width="101" height="31" viewBox="0 0 101 31" fill="none" xmlns="http://www.w3.org/2000/svg">
<path d="M13.9761 5.52617L21.952 29.2822H23.704V30.0228L13.3053 30.0035V29.2628H15.5046L13.3786 22.8875H5.71432L3.39415 29.255H6.82494V29.9918H0V29.2511H2.62809L9.3797 10.8544L7.98688 6.89119L13.9761 5.52617ZM9.71693 11.8898L5.98922 22.143H13.1294L9.71693 11.8898Z" fill="white"/>
<path d="M34.9782 28.309C34.1718 29.4724 32.4894 30.4147 30.2828 30.4109C27.0646 30.4109 25.0377 28.5107 25.0413 24.7724L25.0633 13.732H22.6808V13.0301H24.99C26.8227 10.8469 28.9889 8.55504 30.9536 6.5967H31.1259V13.0418H34.8719V13.7437H31.1259L31.1039 26.2266C31.1039 27.8204 31.7636 28.6736 32.9549 28.6736C33.618 28.6839 34.2586 28.4195 34.7399 27.9368L34.9782 28.309Z" fill="white"/>
<path d="M35.587 21.5304C35.587 16.3069 39.3147 12.65 44.4242 12.6617C49.5338 12.6733 53.2725 16.3418 53.2652 21.5808C53.2652 26.9517 49.5375 30.5 44.3949 30.5C39.2524 30.5 35.576 26.9013 35.587 21.5304ZM46.8581 21.5537C46.8581 15.3684 46.2423 13.255 44.4242 13.255C42.6062 13.255 42.0051 15.3607 41.9941 21.542C41.9941 27.8048 42.6099 29.8756 44.3253 29.8834C46.1433 29.8834 46.8471 27.7389 46.8581 21.5537Z" fill="white"/>
<path d="M82.3433 29.4021H84.1247V30.1428H74.9613V29.406H76.2918L76.3138 16.9618C76.3138 15.5192 75.5807 14.5924 74.4261 14.5885C73.7957 14.5885 73.2715 14.8445 72.4981 15.4727L72.4761 29.3982H73.8396V30.1389H65.0867V29.3982H66.4172V16.9192C66.4172 15.4727 65.6842 14.5924 64.5333 14.5924C64.1718 14.6026 63.8163 14.6936 63.4904 14.8594C63.1644 15.0251 62.8753 15.2619 62.6419 15.5541L62.6162 29.406H63.9835V30.1467H54.7797V29.406H56.5647L56.5904 13.8479H54.8053V13.146H62.6493V14.701C64.0019 13.3964 65.76 12.6623 67.5902 12.638C69.5841 12.638 71.054 13.495 71.9263 15.1276C73.8873 13.3903 75.676 12.6535 77.461 12.6573C80.5399 12.6573 82.358 14.7398 82.3507 18.3346L82.3433 29.4021Z" fill="white"/>
<path d="M100.494 20.3974H91.4624C91.7337 25.0509 93.3758 26.9549 96.6673 26.9627C97.9895 26.9956 99.2882 26.5887 100.38 25.7993L100.483 25.9079C99.3247 28.6496 96.9055 30.5614 93.3354 30.5614C88.5704 30.5614 85.3596 27.176 85.3706 21.9524C85.3706 16.1356 89.3402 12.8122 93.68 12.8239C97.7779 12.8239 100.501 15.8719 100.494 19.6877V20.3974ZM95.2084 19.6451C95.2084 15.0537 94.7649 13.3862 93.504 13.3862C92.2431 13.3862 91.4368 15.011 91.4295 18.9354V19.6373L95.2084 19.6451Z" fill="white"/>
<path d="M43.4384 9.19829C42.8828 9.22844 42.3342 9.05597 41.8843 8.70968C41.6853 8.52533 41.5296 8.29438 41.4297 8.0352C41.3298 7.77602 41.2884 7.49575 41.3088 7.21669C41.2996 6.87985 41.3755 6.5465 41.5288 6.2511C41.6693 5.98582 41.8828 5.77211 42.1409 5.63839C42.3971 5.49849 42.6694 5.39421 42.951 5.32816C43.2537 5.26289 43.562 5.23041 43.871 5.23121C44.4369 5.22162 45.0014 5.29204 45.5497 5.44061V4.23071C45.5704 4.02642 45.5446 3.81985 45.4745 3.62825C45.4044 3.43666 45.2919 3.2656 45.1465 3.12939C44.8097 2.89395 44.4095 2.78096 44.0066 2.80752C43.3082 2.77657 42.6234 3.01807 42.0823 3.48615H41.7157V2.8463C42.44 2.45419 43.2444 2.25706 44.0579 2.27237C44.6294 2.234 45.1981 2.38441 45.6853 2.70282C45.8862 2.87844 46.0431 3.10368 46.1422 3.35865C46.2412 3.61362 46.2795 3.89048 46.2535 4.16479V8.10861C46.2535 8.4964 46.4221 8.68253 46.7593 8.68253H46.8692C46.9407 8.68492 47.0118 8.67172 47.0782 8.64376V9.0742L46.8692 9.15176C46.7564 9.17997 46.6406 9.193 46.5247 9.19054C45.8649 9.19054 45.5387 8.88807 45.5387 8.27923V8.13575C45.2926 8.47552 44.974 8.74889 44.609 8.93355C44.244 9.11821 43.8429 9.20893 43.4384 9.19829ZM43.5374 8.67478C43.9316 8.67032 44.3193 8.56757 44.6689 8.37486C45.0186 8.18216 45.3203 7.90494 45.5497 7.5657V5.92147C45.0416 5.78685 44.5193 5.72168 43.9956 5.72758C42.6638 5.72758 41.9979 6.22395 41.9979 7.21669C41.9979 8.20943 42.5074 8.69546 43.5264 8.67478H43.5374Z" fill="white"/>
<path d="M51.5021 9.18308C51.0771 9.214 50.6508 9.14755 50.2523 8.98828C49.8538 8.829 49.4924 8.58064 49.1929 8.26014C48.6318 7.54995 48.3474 6.64034 48.3975 5.71624C48.3756 5.25662 48.4405 4.79698 48.5884 4.36419C48.7363 3.93139 48.9642 3.53413 49.2589 3.19561C49.5634 2.87806 49.9267 2.63071 50.3261 2.46919C50.7254 2.30767 51.152 2.23547 51.5791 2.25716C52.2905 2.23826 52.9984 2.37011 53.661 2.64495V3.89751H53.1699C53.1699 3.7579 53.1405 3.65708 53.1332 3.59116C53.1259 3.52523 53.1039 3.44379 53.0782 3.34297C53.0545 3.25351 53.0075 3.1729 52.9426 3.1103C52.8706 3.04592 52.7888 2.9948 52.7007 2.95906C52.3391 2.81001 51.9521 2.74265 51.5644 2.76128C51.2197 2.73572 50.8741 2.79649 50.5557 2.93865C50.2372 3.08082 49.955 3.30038 49.7318 3.57952C49.3012 4.19887 49.0851 4.95604 49.1196 5.724C49.0825 6.49183 49.2861 7.25113 49.6987 7.88398C49.9205 8.16404 50.203 8.38327 50.5221 8.52302C50.8412 8.66278 51.1874 8.71894 51.5314 8.68671C52.4258 8.68671 53.0489 8.39975 53.3935 7.82582H53.7893V8.3726C53.1562 8.94843 52.3353 9.23933 51.5021 9.18308Z" fill="white"/>
<path d="M57.4001 9.19829C56.8444 9.22907 56.2956 9.05654 55.8459 8.70968C55.6462 8.52571 55.4898 8.29493 55.3893 8.03573C55.2887 7.77653 55.2468 7.49607 55.2668 7.21669C55.2576 6.87985 55.3335 6.5465 55.4867 6.2511C55.6281 5.98658 55.8414 5.77311 56.0989 5.63839C56.3567 5.49907 56.6301 5.39483 56.9126 5.32815C57.2153 5.26268 57.5236 5.23019 57.8326 5.23121C58.3973 5.22136 58.9607 5.29179 59.5077 5.44061V4.23071C59.5291 4.02671 59.5041 3.82025 59.4346 3.62862C59.3651 3.43699 59.2531 3.26579 59.1081 3.12939C58.7711 2.89447 58.3711 2.78153 57.9682 2.80752C57.2696 2.77511 56.5844 3.01678 56.0439 3.48615H55.6774V2.8463C56.4019 2.45509 57.2062 2.25802 58.0195 2.27237C58.5911 2.234 59.1597 2.38441 59.6469 2.70282C59.8483 2.87799 60.0056 3.10316 60.1047 3.35825C60.2038 3.61334 60.2418 3.89042 60.2151 4.16479V8.10861C60.2151 8.49639 60.3837 8.68253 60.7209 8.68253H60.8345C60.9059 8.68492 60.9771 8.67172 61.0435 8.64376V9.0742L60.8345 9.15176C60.7145 9.18157 60.5912 9.19461 60.468 9.19053C59.8119 9.19053 59.482 8.88806 59.482 8.27923V8.13575C59.2378 8.47284 58.9221 8.74458 58.5605 8.92912C58.1989 9.11366 57.8015 9.20586 57.4001 9.19829ZM57.499 8.67478C57.8928 8.67064 58.2801 8.568 58.6292 8.37525C58.9783 8.18249 59.2793 7.90509 59.5077 7.5657V5.92147C58.9996 5.78663 58.4773 5.72147 57.9535 5.72758C56.6242 5.72758 55.9584 6.22395 55.9559 7.21669C55.9535 8.20943 56.4678 8.69546 57.499 8.67478Z" fill="white"/>
<path d="M65.1451 9.18286C64.2141 9.18286 63.5324 8.87263 63.0962 8.24441C62.6542 7.49116 62.428 6.61854 62.4449 5.73212C62.4618 4.84569 62.7211 3.98344 63.1915 3.24968C63.4496 2.91504 63.7795 2.6504 64.1537 2.47774C64.5279 2.30507 64.9357 2.22938 65.3431 2.25694C65.7514 2.23585 66.1589 2.3132 66.5348 2.48317C66.9107 2.65313 67.2452 2.91126 67.513 3.23805V0.484737H66.4134V0H68.0408C68.1544 0 68.2131 0.0814361 68.2131 0.236552V8.27155C68.2135 8.32053 68.2236 8.36887 68.2425 8.41357C68.2614 8.45827 68.2888 8.49837 68.323 8.53137C68.3522 8.57116 68.3894 8.60362 68.4318 8.62642C68.4743 8.64922 68.521 8.66178 68.5686 8.66322H69.1257V9.13245H67.6816C67.568 9.13245 67.5057 8.98897 67.4983 8.702V7.86826C67.2429 8.2797 66.8931 8.61603 66.4816 8.8459C66.0701 9.07576 65.6104 9.19169 65.1451 9.18286ZM65.2294 8.67486C65.685 8.6674 66.1319 8.54102 66.5303 8.30696C66.9286 8.07289 67.2662 7.73837 67.513 7.3331V3.75768C67.2444 3.45978 66.9263 3.21661 66.5746 3.04027C66.2181 2.89045 65.8365 2.81919 65.4531 2.83087C65.1206 2.80069 64.7863 2.86112 64.4822 3.0064C64.178 3.15167 63.9141 3.37694 63.7156 3.66074C63.3314 4.28998 63.1407 5.02958 63.1695 5.77807C63.162 6.37594 63.268 6.96933 63.4811 7.52312C63.5672 7.76646 63.7053 7.98547 63.8846 8.16305C64.0639 8.34063 64.2795 8.47199 64.5147 8.54689C64.7441 8.63328 64.9859 8.67659 65.2294 8.67486Z" fill="white"/>
<path d="M73.6046 9.18286C73.1769 9.21256 72.7479 9.14754 72.3453 8.99196C71.9426 8.83638 71.5751 8.59367 71.2661 8.27931C70.687 7.58619 70.3917 6.67817 70.4451 5.7548C70.4113 4.84121 70.6971 3.94651 71.2478 3.24192C71.5207 2.91333 71.8603 2.65411 72.241 2.48357C72.6218 2.31303 73.034 2.23557 73.447 2.25694C75.287 2.25694 76.2071 3.38411 76.2071 5.63846C76.2038 5.67717 76.2038 5.71609 76.2071 5.7548H71.1891C71.2111 7.70926 72.0371 8.68778 73.6669 8.69037C74.5784 8.69037 75.2357 8.42409 75.6389 7.89152H76.0604V8.43055C75.3466 8.96978 74.4803 9.23518 73.6046 9.18286ZM71.1965 5.24679H75.4886C75.4471 3.58447 74.7653 2.75331 73.4433 2.75331C73.1467 2.73559 72.8499 2.788 72.5748 2.90672C72.2996 3.02545 72.0529 3.20751 71.8526 3.4397C71.4536 3.95034 71.2232 4.58489 71.1965 5.24679ZM73.0292 1.65974L73.9052 0H74.6383V0.325745L73.5386 1.65974H73.0292Z" fill="white"/>
<path d="M83.3324 3.97837V8.66286H84.3184V9.13209H81.6316V8.66286H82.6176V4.17614C82.6242 3.95095 82.5983 3.72602 82.5407 3.50914C82.4649 3.30075 82.3259 3.12486 82.1454 3.00906C81.965 2.89326 81.7533 2.84409 81.5436 2.86928C80.8436 2.86928 80.0775 3.25708 79.2382 3.97837V8.66286H80.3378V9.13209H77.6107V8.66286H78.1532C78.2473 8.6594 78.3366 8.61774 78.4024 8.54653C78.4368 8.51279 78.4642 8.472 78.4831 8.42666C78.502 8.38132 78.5119 8.33238 78.5124 8.28283V3.21054C78.5067 3.10811 78.4679 3.01087 78.4024 2.93521C78.3366 2.86399 78.2473 2.82233 78.1532 2.81887H77.5484V2.3225H79.0146C79.0466 2.3204 79.0785 2.3276 79.1069 2.34332C79.1353 2.35904 79.1592 2.38268 79.1758 2.41169C79.212 2.52569 79.233 2.64446 79.2382 2.76458V3.54016C80.1252 2.69478 80.9596 2.27209 81.7416 2.27209C82.6604 2.27209 83.1821 2.69866 83.3067 3.55179C83.6794 3.18469 84.093 2.86695 84.5383 2.60559C84.9382 2.38284 85.3839 2.26826 85.8358 2.27209C86.0341 2.27391 86.2317 2.29599 86.426 2.33801C87.0931 2.52803 87.4266 3.07481 87.4266 3.97061V8.29834C87.427 8.3479 87.437 8.39684 87.4559 8.44218C87.4748 8.48752 87.5023 8.5283 87.5366 8.56204C87.5678 8.59822 87.6057 8.62723 87.6479 8.64724C87.6902 8.66726 87.7358 8.67786 87.7821 8.67838H88.2623V9.1476H85.5902V8.67838H86.6899V4.17614C86.6965 3.95095 86.6705 3.72602 86.6129 3.50914C86.5349 3.29911 86.3933 3.12237 86.2103 3.00658C86.0272 2.8908 85.813 2.84251 85.6012 2.86928C84.9928 2.86928 84.2267 3.24157 83.3324 3.97837Z" fill="white"/>
<path d="M89.5604 9.13232V8.6631H90.1614C90.2555 8.65963 90.3447 8.61798 90.4106 8.54676C90.4449 8.51303 90.4723 8.47224 90.4912 8.4269C90.5101 8.38156 90.5201 8.33262 90.5205 8.28306V3.21078C90.5149 3.10835 90.4761 3.01111 90.4106 2.93545C90.3447 2.86423 90.2555 2.82257 90.1614 2.81911H89.4981V2.32274H91.0519C91.0806 2.32102 91.1092 2.32728 91.1349 2.34088C91.1606 2.35449 91.1825 2.37497 91.1985 2.40029C91.228 2.5059 91.2404 2.61605 91.2351 2.72604V8.28306C91.2351 8.38591 91.2737 8.48455 91.3424 8.55727C91.4111 8.63 91.5044 8.67085 91.6016 8.67085H92.2172V9.14008L89.5604 9.13232ZM91.1362 1.21366C91.0426 1.30579 90.9195 1.35701 90.7917 1.35701C90.6638 1.35701 90.5408 1.30579 90.4472 1.21366C90.4022 1.16595 90.367 1.10898 90.3437 1.04628C90.3204 0.983576 90.3095 0.916479 90.3116 0.849136C90.3116 0.714404 90.3622 0.585192 90.4522 0.489923C90.5423 0.394654 90.6643 0.341132 90.7917 0.341132C90.919 0.341132 91.0411 0.394654 91.1311 0.489923C91.2212 0.585192 91.2717 0.714404 91.2717 0.849136C91.2739 0.916479 91.263 0.983576 91.2397 1.04628C91.2163 1.10898 91.1811 1.16595 91.1362 1.21366Z" fill="white"/>
<path d="M96.7328 9.1829C96.3056 9.21229 95.8774 9.14711 95.4753 8.99154C95.0733 8.83596 94.7064 8.5934 94.398 8.27935C93.8189 7.58622 93.5236 6.6782 93.5769 5.75483C93.5431 4.84124 93.8289 3.94654 94.3796 3.24196C94.6526 2.91336 94.9921 2.65415 95.3729 2.48361C95.7537 2.31307 96.1659 2.2356 96.5789 2.25697C98.4189 2.25697 99.3389 3.38415 99.3389 5.6385C99.3356 5.6772 99.3356 5.71613 99.3389 5.75483H94.321C94.343 7.70929 95.1689 8.68782 96.7988 8.6904C97.7127 8.6904 98.37 8.42412 98.7707 7.89156H99.1923V8.43058C98.4771 8.96982 97.6096 9.23517 96.7328 9.1829ZM94.3283 5.24683H98.6205C98.5814 3.5845 97.8996 2.75334 96.5752 2.75334C96.2785 2.73563 95.9818 2.78803 95.7067 2.90676C95.4315 3.02548 95.1848 3.20755 94.9844 3.43973C94.5855 3.95038 94.3551 4.58492 94.3283 5.24683Z" fill="white"/>
</svg>
